<?xml version="1.0" encoding="UTF-8" standalone="no"?><!DOCTYPE svg PUBLIC "-//W3C//DTD SVG 1.1//EN" "http://www.w3.org/Graphics/SVG/1.1/DTD/svg11.dtd"><svg width="100%" height="100%" viewBox="0 0 532 346" version="1.1" xmlns="http://www.w3.org/2000/svg" xmlns:xlink="http://www.w3.org/1999/xlink" xml:space="preserve" xmlns:serif="http://www.serif.com/" style="fill-rule:evenodd;clip-rule:evenodd;stroke-linejoin:round;stroke-miterlimit:2;"><g id="Clockin_unpressed"></g><g id="Clockin_pressed"></g><g id="Clockout_unpressed"><path d="M510,96c0,-41.394 -33.606,-75 -75,-75l-350,0c-41.394,0 -75,33.606 -75,75l0,150c0,41.394 33.606,75 75,75l350,0c41.394,0 75,-33.606 75,-75l0,-150Z" style="fill:#6f0000;"/><path d="M522,84c0,-41.394 -33.606,-75 -75,-75l-350,0c-41.394,0 -75,33.606 -75,75l0,150c0,41.394 33.606,75 75,75l350,0c41.394,0 75,-33.606 75,-75l0,-150Z" style="fill:#da0a00;"/><g><path d="M91.414,197.974c-5.556,0 -10.292,-0.958 -14.209,-2.875c-3.916,-1.916 -7.083,-4.444 -9.5,-7.583c-2.416,-3.139 -4.194,-6.528 -5.333,-10.167c-1.139,-3.638 -1.708,-7.152 -1.708,-10.541l0,-1.834c0,-3.722 0.583,-7.416 1.75,-11.083c1.166,-3.667 2.958,-7 5.375,-10c2.416,-3 5.555,-5.417 9.416,-7.25c3.861,-1.833 8.431,-2.75 13.709,-2.75c5.5,0 10.25,0.972 14.25,2.917c4,1.944 7.18,4.653 9.541,8.125c2.361,3.472 3.764,7.569 4.209,12.291l-10.084,0c-0.444,-3.111 -1.486,-5.708 -3.125,-7.791c-1.639,-2.084 -3.722,-3.653 -6.25,-4.709c-2.528,-1.055 -5.375,-1.583 -8.541,-1.583c-3.278,0 -6.181,0.583 -8.709,1.75c-2.528,1.167 -4.625,2.778 -6.291,4.833c-1.667,2.056 -2.931,4.459 -3.792,7.209c-0.861,2.75 -1.292,5.764 -1.292,9.041c0,3.112 0.431,6.042 1.292,8.792c0.861,2.75 2.153,5.181 3.875,7.292c1.722,2.111 3.875,3.75 6.458,4.916c2.584,1.167 5.57,1.75 8.959,1.75c4.888,0 9,-1.208 12.333,-3.625c3.333,-2.416 5.361,-5.875 6.083,-10.375l10.167,0c-0.556,4.278 -2,8.181 -4.333,11.709c-2.334,3.528 -5.528,6.333 -9.584,8.416c-4.055,2.084 -8.944,3.125 -14.666,3.125Z" style="fill-rule:nonzero;"/><path d="M130.414,196.474l0,-60.833l9.833,0l0,60.833l-9.833,0Zm-5.917,-53.333l0,-7.5l15.75,0l0,7.5l-15.75,0Z" style="fill-rule:nonzero;"/><path d="M175.664,197.974c-3.945,0 -7.417,-0.652 -10.417,-1.958c-3,-1.305 -5.528,-3.042 -7.583,-5.208c-2.056,-2.167 -3.612,-4.625 -4.667,-7.375c-1.056,-2.75 -1.583,-5.597 -1.583,-8.542l0,-1.667c0,-2.944 0.541,-5.805 1.625,-8.583c1.083,-2.778 2.666,-5.264 4.75,-7.458c2.083,-2.195 4.625,-3.931 7.625,-5.209c3,-1.277 6.416,-1.916 10.25,-1.916c3.833,0 7.236,0.639 10.208,1.916c2.972,1.278 5.514,3.014 7.625,5.209c2.111,2.194 3.708,4.68 4.792,7.458c1.083,2.778 1.625,5.639 1.625,8.583l0,1.667c0,2.945 -0.528,5.792 -1.584,8.542c-1.055,2.75 -2.611,5.208 -4.666,7.375c-2.056,2.166 -4.584,3.903 -7.584,5.208c-3,1.306 -6.472,1.958 -10.416,1.958Zm0,-8.5c3.055,0 5.666,-0.68 7.833,-2.041c2.167,-1.361 3.819,-3.209 4.958,-5.542c1.139,-2.333 1.709,-4.944 1.709,-7.833c0,-2.945 -0.584,-5.584 -1.75,-7.917c-1.167,-2.333 -2.834,-4.18 -5,-5.542c-2.167,-1.361 -4.75,-2.041 -7.75,-2.041c-3,0 -5.584,0.68 -7.75,2.041c-2.167,1.362 -3.834,3.209 -5,5.542c-1.167,2.333 -1.75,4.972 -1.75,7.917c0,2.889 0.569,5.5 1.708,7.833c1.139,2.333 2.792,4.181 4.958,5.542c2.167,1.361 4.778,2.041 7.834,2.041Z" style="fill-rule:nonzero;"/><path d="M230.58,197.974c-3.833,0 -7.18,-0.652 -10.041,-1.958c-2.862,-1.305 -5.223,-3.083 -7.084,-5.333c-1.861,-2.25 -3.25,-4.75 -4.166,-7.5c-0.917,-2.75 -1.375,-5.542 -1.375,-8.375l0,-1.5c0,-2.945 0.472,-5.792 1.416,-8.542c0.945,-2.75 2.361,-5.236 4.25,-7.458c1.889,-2.222 4.236,-3.986 7.042,-5.292c2.805,-1.305 6.097,-1.958 9.875,-1.958c3.833,0 7.264,0.722 10.292,2.166c3.027,1.445 5.458,3.487 7.291,6.125c1.834,2.639 2.861,5.709 3.084,9.209l-9.417,0c-0.333,-2.5 -1.458,-4.611 -3.375,-6.334c-1.917,-1.722 -4.542,-2.583 -7.875,-2.583c-2.889,0 -5.278,0.667 -7.167,2c-1.889,1.333 -3.305,3.153 -4.25,5.458c-0.944,2.306 -1.416,4.959 -1.416,7.959c0,2.889 0.458,5.5 1.375,7.833c0.916,2.333 2.333,4.167 4.25,5.5c1.916,1.333 4.347,2 7.291,2c2.278,0 4.236,-0.403 5.875,-1.208c1.639,-0.806 2.959,-1.889 3.959,-3.25c1,-1.361 1.583,-2.931 1.75,-4.709l9.5,0c-0.167,3.612 -1.195,6.737 -3.084,9.375c-1.889,2.639 -4.389,4.695 -7.5,6.167c-3.111,1.472 -6.611,2.208 -10.5,2.208Z" style="fill-rule:nonzero;"/><path d="M292.914,196.474l-16,-20.916l-7,0l19.75,-24l10.333,0l-18.167,21.833l0.417,-5l21.833,28.083l-11.166,0Zm-31.167,0l0,-60.833l9.75,0l0,60.833l-9.75,0Z" style="fill-rule:nonzero;"/><rect x="307.33" y="168.891" width="32.333" height="8.5" style="fill-rule:nonzero;"/><path d="M372.83,197.974c-3.944,0 -7.416,-0.652 -10.416,-1.958c-3,-1.305 -5.528,-3.042 -7.584,-5.208c-2.055,-2.167 -3.611,-4.625 -4.666,-7.375c-1.056,-2.75 -1.584,-5.597 -1.584,-8.542l0,-1.667c0,-2.944 0.542,-5.805 1.625,-8.583c1.084,-2.778 2.667,-5.264 4.75,-7.458c2.084,-2.195 4.625,-3.931 7.625,-5.209c3,-1.277 6.417,-1.916 10.25,-1.916c3.834,0 7.236,0.639 10.209,1.916c2.972,1.278 5.513,3.014 7.625,5.209c2.111,2.194 3.708,4.68 4.791,7.458c1.084,2.778 1.625,5.639 1.625,8.583l0,1.667c0,2.945 -0.528,5.792 -1.583,8.542c-1.056,2.75 -2.611,5.208 -4.667,7.375c-2.055,2.166 -4.583,3.903 -7.583,5.208c-3,1.306 -6.472,1.958 -10.417,1.958Zm0,-8.5c3.056,0 5.667,-0.68 7.834,-2.041c2.166,-1.361 3.819,-3.209 4.958,-5.542c1.139,-2.333 1.708,-4.944 1.708,-7.833c0,-2.945 -0.583,-5.584 -1.75,-7.917c-1.166,-2.333 -2.833,-4.18 -5,-5.542c-2.166,-1.361 -4.75,-2.041 -7.75,-2.041c-3,0 -5.583,0.68 -7.75,2.041c-2.166,1.362 -3.833,3.209 -5,5.542c-1.166,2.333 -1.75,4.972 -1.75,7.917c0,2.889 0.57,5.5 1.709,7.833c1.138,2.333 2.791,4.181 4.958,5.542c2.167,1.361 4.778,2.041 7.833,2.041Z" style="fill-rule:nonzero;"/><path d="M423.664,197.808c-5.278,0 -9.334,-1.709 -12.167,-5.125c-2.833,-3.417 -4.25,-8.459 -4.25,-15.125l0,-26l9.75,0l0,27.333c0,3.111 0.861,5.57 2.583,7.375c1.722,1.806 4.056,2.708 7,2.708c3,0 5.459,-0.958 7.375,-2.875c1.917,-1.916 2.875,-4.541 2.875,-7.875l0,-26.666l9.75,0l0,44.916l-7.75,0l0,-19.166l1,0c0,4.5 -0.597,8.264 -1.791,11.291c-1.195,3.028 -2.945,5.32 -5.25,6.875c-2.306,1.556 -5.209,2.334 -8.709,2.334l-0.416,0Z" style="fill-rule:nonzero;"/><path d="M479.497,196.974c-3.722,0 -6.861,-0.5 -9.417,-1.5c-2.555,-1 -4.486,-2.722 -5.791,-5.166c-1.306,-2.445 -1.959,-5.75 -1.959,-9.917l0,-41.917l9.25,0l0,42.75c0,2.334 0.625,4.125 1.875,5.375c1.25,1.25 3.014,1.875 5.292,1.875l7.5,0l0,8.5l-6.75,0Zm-24.583,-38.166l0,-7.25l31.333,0l0,7.25l-31.333,0Z" style="fill-rule:nonzero;"/></g></g><g id="Clockout_pressed"></g></svg>