<?xml version="1.0" encoding="UTF-8" standalone="no"?><!DOCTYPE svg PUBLIC "-//W3C//DTD SVG 1.1//EN" "http://www.w3.org/Graphics/SVG/1.1/DTD/svg11.dtd"><svg width="100%" height="100%" viewBox="0 0 532 346" version="1.1" xmlns="http://www.w3.org/2000/svg" xmlns:xlink="http://www.w3.org/1999/xlink" xml:space="preserve" xmlns:serif="http://www.serif.com/" style="fill-rule:evenodd;clip-rule:evenodd;stroke-linejoin:round;stroke-miterlimit:2;"><g id="Clockin_unpressed"></g><g id="Clockin_pressed"></g><g id="Clockout_unpressed"></g><g id="Clockout_pressed"><path d="M514,88c0,-41.394 -33.606,-75 -75,-75l-350,0c-41.394,0 -75,33.606 -75,75l0,150c0,41.394 33.606,75 75,75l350,0c41.394,0 75,-33.606 75,-75l0,-150Z" style="fill:#6f0000;"/><path d="M518,84c0,-41.394 -33.606,-75 -75,-75l-350,0c-41.394,0 -75,33.606 -75,75l0,150c0,41.394 33.606,75 75,75l350,0c41.394,0 75,-33.606 75,-75l0,-150Z" style="fill:#da0a00;"/><g><path d="M81.958,191.042c-5.555,0 -10.291,-0.959 -14.208,-2.875c-3.917,-1.917 -7.083,-4.445 -9.5,-7.584c-2.417,-3.139 -4.194,-6.527 -5.333,-10.166c-1.139,-3.639 -1.709,-7.153 -1.709,-10.542l0,-1.833c0,-3.723 0.584,-7.417 1.75,-11.084c1.167,-3.666 2.959,-7 5.375,-10c2.417,-3 5.556,-5.416 9.417,-7.25c3.861,-1.833 8.431,-2.75 13.708,-2.75c5.5,0 10.25,0.973 14.25,2.917c4,1.944 7.181,4.653 9.542,8.125c2.361,3.472 3.764,7.569 4.208,12.292l-10.083,0c-0.444,-3.111 -1.486,-5.709 -3.125,-7.792c-1.639,-2.083 -3.722,-3.653 -6.25,-4.708c-2.528,-1.056 -5.375,-1.584 -8.542,-1.584c-3.277,0 -6.18,0.584 -8.708,1.75c-2.528,1.167 -4.625,2.778 -6.292,4.834c-1.666,2.055 -2.93,4.458 -3.791,7.208c-0.861,2.75 -1.292,5.764 -1.292,9.042c0,3.111 0.431,6.041 1.292,8.791c0.861,2.75 2.152,5.181 3.875,7.292c1.722,2.111 3.875,3.75 6.458,4.917c2.583,1.166 5.569,1.75 8.958,1.75c4.889,0 9,-1.209 12.334,-3.625c3.333,-2.417 5.361,-5.875 6.083,-10.375l10.167,0c-0.556,4.277 -2,8.18 -4.334,11.708c-2.333,3.528 -5.527,6.333 -9.583,8.417c-4.056,2.083 -8.944,3.125 -14.667,3.125Z" style="fill-rule:nonzero;"/><path d="M120.958,189.542l0,-60.834l9.834,0l0,60.834l-9.834,0Zm-5.916,-53.334l0,-7.5l15.75,0l0,7.5l-15.75,0Z" style="fill-rule:nonzero;"/><path d="M166.208,191.042c-3.944,0 -7.416,-0.653 -10.416,-1.959c-3,-1.305 -5.528,-3.041 -7.584,-5.208c-2.055,-2.167 -3.611,-4.625 -4.666,-7.375c-1.056,-2.75 -1.584,-5.597 -1.584,-8.542l0,-1.666c0,-2.945 0.542,-5.806 1.625,-8.584c1.084,-2.777 2.667,-5.264 4.75,-7.458c2.084,-2.194 4.625,-3.931 7.625,-5.208c3,-1.278 6.417,-1.917 10.25,-1.917c3.834,0 7.236,0.639 10.209,1.917c2.972,1.277 5.514,3.014 7.625,5.208c2.111,2.194 3.708,4.681 4.791,7.458c1.084,2.778 1.625,5.639 1.625,8.584l0,1.666c0,2.945 -0.527,5.792 -1.583,8.542c-1.056,2.75 -2.611,5.208 -4.667,7.375c-2.055,2.167 -4.583,3.903 -7.583,5.208c-3,1.306 -6.472,1.959 -10.417,1.959Zm0,-8.5c3.056,0 5.667,-0.681 7.834,-2.042c2.166,-1.361 3.819,-3.208 4.958,-5.542c1.139,-2.333 1.708,-4.944 1.708,-7.833c0,-2.944 -0.583,-5.583 -1.75,-7.917c-1.166,-2.333 -2.833,-4.18 -5,-5.541c-2.166,-1.361 -4.75,-2.042 -7.75,-2.042c-3,0 -5.583,0.681 -7.75,2.042c-2.166,1.361 -3.833,3.208 -5,5.541c-1.166,2.334 -1.75,4.973 -1.75,7.917c0,2.889 0.57,5.5 1.709,7.833c1.139,2.334 2.791,4.181 4.958,5.542c2.167,1.361 4.778,2.042 7.833,2.042Z" style="fill-rule:nonzero;"/><path d="M221.125,191.042c-3.833,0 -7.181,-0.653 -10.042,-1.959c-2.861,-1.305 -5.222,-3.083 -7.083,-5.333c-1.861,-2.25 -3.25,-4.75 -4.167,-7.5c-0.916,-2.75 -1.375,-5.542 -1.375,-8.375l0,-1.5c0,-2.944 0.473,-5.792 1.417,-8.542c0.944,-2.75 2.361,-5.236 4.25,-7.458c1.889,-2.222 4.236,-3.986 7.042,-5.292c2.805,-1.305 6.097,-1.958 9.875,-1.958c3.833,0 7.264,0.722 10.291,2.167c3.028,1.444 5.459,3.486 7.292,6.125c1.833,2.639 2.861,5.708 3.083,9.208l-9.416,0c-0.334,-2.5 -1.459,-4.611 -3.375,-6.333c-1.917,-1.723 -4.542,-2.584 -7.875,-2.584c-2.889,0 -5.278,0.667 -7.167,2c-1.889,1.334 -3.306,3.153 -4.25,5.459c-0.944,2.305 -1.417,4.958 -1.417,7.958c0,2.889 0.459,5.5 1.375,7.833c0.917,2.334 2.334,4.167 4.25,5.5c1.917,1.334 4.348,2 7.292,2c2.278,0 4.236,-0.402 5.875,-1.208c1.639,-0.806 2.958,-1.889 3.958,-3.25c1,-1.361 1.584,-2.931 1.75,-4.708l9.5,0c-0.166,3.611 -1.194,6.736 -3.083,9.375c-1.889,2.639 -4.389,4.694 -7.5,6.166c-3.111,1.473 -6.611,2.209 -10.5,2.209Z" style="fill-rule:nonzero;"/><path d="M283.458,189.542l-16,-20.917l-7,0l19.75,-24l10.334,0l-18.167,21.833l0.417,-5l21.833,28.084l-11.167,0Zm-31.166,0l0,-60.834l9.75,0l0,60.834l-9.75,0Z" style="fill-rule:nonzero;"/><rect x="297.875" y="161.958" width="32.333" height="8.5" style="fill-rule:nonzero;"/><path d="M363.375,191.042c-3.944,0 -7.417,-0.653 -10.417,-1.959c-3,-1.305 -5.527,-3.041 -7.583,-5.208c-2.056,-2.167 -3.611,-4.625 -4.667,-7.375c-1.055,-2.75 -1.583,-5.597 -1.583,-8.542l0,-1.666c0,-2.945 0.542,-5.806 1.625,-8.584c1.083,-2.777 2.667,-5.264 4.75,-7.458c2.083,-2.194 4.625,-3.931 7.625,-5.208c3,-1.278 6.417,-1.917 10.25,-1.917c3.833,0 7.236,0.639 10.208,1.917c2.973,1.277 5.514,3.014 7.625,5.208c2.111,2.194 3.709,4.681 4.792,7.458c1.083,2.778 1.625,5.639 1.625,8.584l0,1.666c0,2.945 -0.528,5.792 -1.583,8.542c-1.056,2.75 -2.611,5.208 -4.667,7.375c-2.056,2.167 -4.583,3.903 -7.583,5.208c-3,1.306 -6.473,1.959 -10.417,1.959Zm0,-8.5c3.056,0 5.667,-0.681 7.833,-2.042c2.167,-1.361 3.82,-3.208 4.959,-5.542c1.139,-2.333 1.708,-4.944 1.708,-7.833c0,-2.944 -0.583,-5.583 -1.75,-7.917c-1.167,-2.333 -2.833,-4.18 -5,-5.541c-2.167,-1.361 -4.75,-2.042 -7.75,-2.042c-3,0 -5.583,0.681 -7.75,2.042c-2.167,1.361 -3.833,3.208 -5,5.541c-1.167,2.334 -1.75,4.973 -1.75,7.917c0,2.889 0.569,5.5 1.708,7.833c1.139,2.334 2.792,4.181 4.959,5.542c2.166,1.361 4.777,2.042 7.833,2.042Z" style="fill-rule:nonzero;"/><path d="M414.208,190.875c-5.277,0 -9.333,-1.708 -12.166,-5.125c-2.834,-3.417 -4.25,-8.458 -4.25,-15.125l0,-26l9.75,0l0,27.333c0,3.111 0.861,5.57 2.583,7.375c1.722,1.806 4.056,2.709 7,2.709c3,0 5.458,-0.959 7.375,-2.875c1.917,-1.917 2.875,-4.542 2.875,-7.875l0,-26.667l9.75,0l0,44.917l-7.75,0l0,-19.167l1,0c0,4.5 -0.597,8.264 -1.792,11.292c-1.194,3.027 -2.944,5.319 -5.25,6.875c-2.305,1.555 -5.208,2.333 -8.708,2.333l-0.417,0Z" style="fill-rule:nonzero;"/><path d="M470.042,190.042c-3.723,0 -6.861,-0.5 -9.417,-1.5c-2.556,-1 -4.486,-2.723 -5.792,-5.167c-1.305,-2.444 -1.958,-5.75 -1.958,-9.917l0,-41.916l9.25,0l0,42.75c0,2.333 0.625,4.125 1.875,5.375c1.25,1.25 3.014,1.875 5.292,1.875l7.5,0l0,8.5l-6.75,0Zm-24.584,-38.167l0,-7.25l31.334,0l0,7.25l-31.334,0Z" style="fill-rule:nonzero;"/></g></g></svg>